<svg xmlns="http://www.w3.org/2000/svg" xmlns:xlink="http://www.w3.org/1999/xlink" viewBox="0 0 65 66" fill="#fff" fill-rule="evenodd" stroke="#000" stroke-linecap="round" stroke-linejoin="round"><use xlink:href="#B" x=".5" y=".5"/><defs><linearGradient x1="5.77%" y1="94.81%" x2="93.85%" y2="5.57%" id="A"><stop offset="0%" stop-color="#070135"/><stop offset="100%" stop-color="#612d50"/></linearGradient></defs><symbol id="B" overflow="visible"><g stroke="none" fill-rule="nonzero"><path d="M0 10.309C0 4.598 4.605 0 10.325 0H53.59c5.72 0 10.325 4.598 10.325 10.309v43.46c0 5.711-4.605 10.309-10.325 10.309H10.325C4.605 64.077 0 59.48 0 53.769z" fill="url(#A)"/><path d="M32.44 27.586c1.633 0 2.87-.349 3.713-1.063s1.265-1.755 1.265-3.137c0-1.365-.421-2.402-1.265-3.11-.849-.727-2.081-1.09-3.713-1.09h-5.732v8.401h5.732m.349 17.36c2.081 0 3.641-.434 4.682-1.302 1.059-.868 1.588-2.18 1.588-3.934 0-1.72-.52-3.004-1.561-3.855-1.04-.868-2.61-1.302-4.708-1.302h-6.081v10.395h6.081m9.632-14.276c2.224.638 3.946 1.817 5.166 3.536s1.829 3.828 1.83 6.328c0 3.828-1.31 6.682-3.928 8.561s-6.6 2.818-11.946 2.818H16.351V12.22h15.552c5.578 0 9.614.832 12.107 2.499 2.511 1.666 3.767 4.334 3.767 8.003 0 1.932-.457 3.58-1.372 4.945-.915 1.347-2.247 2.343-3.982 3.004"/></g></symbol></svg>